<svg width="177" height="48" viewBox="0 0 177 48" fill="none" xmlns="http://www.w3.org/2000/svg">
<g clip-path="url(#clip0_28225_97498)">
<g clip-path="url(#clip1_28225_97498)">
<path d="M9.84 7.26C1.62 19.92 3.96 37.62 16.5 47.16C16.74 47.4 16.86 47.7 16.74 47.88C16.62 48.06 16.26 48.06 16.02 47.82C10.0699 43.1109 6.14241 36.3076 5.04 28.8C3.9 21.24 5.58 13.56 9.84 7.26ZM10.5 42.9C8.76 44.4 5.28 43.14 3.54 39.66C5.64 38.64 8.46 40.26 10.5 42.9ZM12.36 35.04C13.5 37.38 13.5 40.32 11.76 41.88C9.72 39.24 10.32 36 12.36 35.04ZM7.26 37.68C5.28 38.88 2.16 36.96 1.14 33.24C3.36 32.7 5.76 34.8 7.26 37.68ZM10.68 30.48C11.34 33 10.74 35.88 8.7 36.96H8.64C7.2 34.02 8.46 31.02 10.68 30.48ZM5.16 32.1C2.94 32.82 0.3 30.36 0 26.52C2.28 26.4 4.26 28.98 5.16 32.1ZM9.9 25.74C10.08 28.32 8.88 30.96 6.66 31.68V31.62C5.82 28.5 7.56 25.86 9.9 25.74ZM0.18 19.68C2.46 20.1 3.9 22.98 4.14 26.16C1.86 26.46 -0.3 23.52 0.18 19.68ZM10.02 20.94C9.66 23.52 8.04 25.8 5.76 26.1L5.7 26.04C5.52 22.86 7.74 20.58 10.02 20.94ZM11.04 16.26C10.26 18.72 8.16 20.64 5.88 20.4C6.24 17.22 8.88 15.42 11.04 16.26ZM1.62 13.02C3.72 13.86 4.62 16.92 4.32 20.04L4.26 20.22H4.2C1.98 19.92 0.48 16.8 1.56 13.2L1.62 13.02ZM12.96 11.76C11.64 14.04 9.3 15.54 7.08 14.88C8.04 11.82 10.98 10.5 12.96 11.76ZM4.38 6.72C6.3 7.98 6.54 11.28 5.58 14.4C3.36 13.74 2.4 10.14 4.38 6.72ZM15.78 7.68C13.98 9.72 11.34 10.74 9.3 9.66C10.92 6.78 14.16 6.06 15.78 7.68ZM8.34 0.96C10.02 2.64 9.54 6 7.92 8.82C5.94 7.74 5.7 4.02 8.34 0.96ZM16.74 0C15.66 2.82 13.38 5.04 10.62 6.12C10.62 3.24 13.74 0.06 16.74 0Z" fill="#00AA45"/>
</g>
<path d="M63.6499 18V9.48H65.2099V16.644H69.2539V18H63.6499ZM71.1612 18V9.48H72.7212V18H71.1612ZM77.5217 18L74.4377 9.48H76.0817L78.4697 16.26L80.8577 9.48H82.4897L79.4057 18H77.5217ZM84.2032 18V9.48H89.9392V10.836H85.7632V13.056H89.7952V14.4H85.7632V16.644H90.0352V18H84.2032ZM99.006 18.192C96.474 18.192 94.938 16.5 94.938 13.752C94.938 11.004 96.474 9.288 99.006 9.288C101.55 9.288 103.074 11.004 103.074 13.752C103.074 16.5 101.55 18.192 99.006 18.192ZM99.006 16.836C100.542 16.836 101.454 15.696 101.454 13.752C101.454 11.808 100.542 10.644 99.006 10.644C97.47 10.644 96.558 11.808 96.558 13.752C96.558 15.696 97.47 16.836 99.006 16.836ZM104.757 18V9.48H106.581L110.253 15.888V9.48H111.813V18H109.941L106.317 11.772V18H104.757Z" fill="#64748B"/>
<path d="M31.4698 31.161C31.4698 31.9103 31.2767 32.5588 30.8905 33.1064C30.5101 33.654 29.9682 34.0777 29.265 34.3775C28.5675 34.6772 27.7432 34.8271 26.7921 34.8271C26.158 34.8271 25.5787 34.7608 25.0541 34.6282C24.5296 34.4956 24.0713 34.3083 23.6793 34.0662L23.8004 33.2967C24.0079 33.4408 24.2327 33.5618 24.4748 33.6598C24.7169 33.752 24.9734 33.8241 25.2443 33.876C25.5153 33.9221 25.7977 33.9451 26.0917 33.9451C26.622 33.9451 27.0947 33.8356 27.5097 33.6166C27.9248 33.3975 28.2504 33.0747 28.4868 32.6482C28.7231 32.2216 28.8413 31.7028 28.8413 31.0918C28.8413 30.3828 28.7001 29.7689 28.4176 29.2501C28.1409 28.7313 27.7489 28.3278 27.2417 28.0396C26.7344 27.7514 26.1378 27.6073 25.4519 27.6073H24.7688V37.4124C24.7688 37.5392 24.8034 37.6487 24.8725 37.741C24.9417 37.8274 25.0512 37.8822 25.2011 37.9052L25.9534 38.009C26.0975 38.0378 26.2012 38.0868 26.2646 38.156C26.328 38.2252 26.3597 38.326 26.3597 38.4586C26.3597 38.5797 26.3165 38.6777 26.23 38.7526C26.1493 38.8218 26.0196 38.8564 25.841 38.8564H21.3275C21.1488 38.8564 21.0162 38.8218 20.9297 38.7526C20.8433 38.6777 20.8 38.5797 20.8 38.4586C20.8 38.2396 20.9211 38.0926 21.1632 38.0176L21.6647 37.9052C21.803 37.8649 21.9068 37.8044 21.976 37.7237C22.0509 37.643 22.0884 37.5392 22.0884 37.4124V28.1952C22.0884 28.0684 22.0509 27.9647 21.976 27.884C21.9068 27.8033 21.803 27.7427 21.6647 27.7024L21.1632 27.59C20.9211 27.515 20.8 27.3681 20.8 27.149C20.8 27.0222 20.8433 26.9242 20.9297 26.855C21.0162 26.7859 21.1488 26.7513 21.3275 26.7513H25.521C26.7777 26.7513 27.8498 26.9415 28.7375 27.3219C29.6252 27.6966 30.3025 28.2183 30.7695 28.887C31.2364 29.5498 31.4698 30.3079 31.4698 31.161Z" fill="#0D0D0D"/>
<path d="M39.8194 33.7463C39.8194 34.0518 39.7329 34.2881 39.56 34.4553C39.387 34.6167 39.1334 34.6974 38.7991 34.6974H33.4037V34.0403H36.9401C37.2341 34.0403 37.381 33.9077 37.381 33.6425C37.381 32.8816 37.2427 32.3052 36.966 31.9132C36.6893 31.5155 36.3175 31.3166 35.8506 31.3166C35.4932 31.3166 35.1762 31.4261 34.8995 31.6452C34.6228 31.8642 34.4066 32.1784 34.251 32.5876C34.0954 32.9911 34.0176 33.4811 34.0176 34.0576C34.0176 35.1701 34.277 36.0059 34.7957 36.565C35.3203 37.1242 36.0178 37.4037 36.8882 37.4037C37.3955 37.4037 37.8393 37.3029 38.2197 37.1011C38.606 36.8994 38.9057 36.6111 39.119 36.2365C39.2227 36.1212 39.3034 36.0434 39.3611 36.003C39.4245 35.9627 39.4879 35.9425 39.5513 35.9425C39.6435 35.9425 39.7098 35.9857 39.7502 36.0722C39.7905 36.1529 39.8107 36.2509 39.8107 36.3662C39.7876 36.8504 39.6147 37.3 39.2919 37.715C38.9691 38.1243 38.5339 38.4528 37.9863 38.7007C37.4387 38.9486 36.8104 39.0725 36.1014 39.0725C35.2655 39.0725 34.5248 38.9025 33.8792 38.5624C33.2336 38.2165 32.7263 37.7352 32.3574 37.1184C31.9943 36.4959 31.8127 35.7696 31.8127 34.9395C31.8127 34.0691 31.9856 33.2967 32.3315 32.6222C32.6831 31.9478 33.1846 31.4204 33.836 31.0399C34.4874 30.6595 35.2655 30.4693 36.1705 30.4693C36.943 30.4693 37.6001 30.6105 38.1419 30.8929C38.6895 31.1696 39.1046 31.5558 39.387 32.0516C39.6752 32.5415 39.8194 33.1064 39.8194 33.7463Z" fill="#0D0D0D"/>
<path d="M48.6942 33.7463C48.6942 34.0518 48.6077 34.2881 48.4348 34.4553C48.2618 34.6167 48.0082 34.6974 47.6739 34.6974H42.2785V34.0403H45.8149C46.1089 34.0403 46.2559 33.9077 46.2559 33.6425C46.2559 32.8816 46.1175 32.3052 45.8408 31.9132C45.5641 31.5155 45.1923 31.3166 44.7254 31.3166C44.368 31.3166 44.051 31.4261 43.7743 31.6452C43.4976 31.8642 43.2815 32.1784 43.1258 32.5876C42.9702 32.9911 42.8924 33.4811 42.8924 34.0576C42.8924 35.1701 43.1518 36.0059 43.6706 36.565C44.1951 37.1242 44.8926 37.4037 45.763 37.4037C46.2703 37.4037 46.7141 37.3029 47.0946 37.1011C47.4808 36.8994 47.7805 36.6111 47.9938 36.2365C48.0976 36.1212 48.1783 36.0434 48.2359 36.003C48.2993 35.9627 48.3627 35.9425 48.4261 35.9425C48.5183 35.9425 48.5846 35.9857 48.625 36.0722C48.6653 36.1529 48.6855 36.2509 48.6855 36.3662C48.6625 36.8504 48.4895 37.3 48.1667 37.715C47.8439 38.1243 47.4087 38.4528 46.8611 38.7007C46.3135 38.9486 45.6852 39.0725 44.9762 39.0725C44.1403 39.0725 43.3996 38.9025 42.754 38.5624C42.1084 38.2165 41.6012 37.7352 41.2322 37.1184C40.8691 36.4959 40.6875 35.7696 40.6875 34.9395C40.6875 34.0691 40.8604 33.2967 41.2063 32.6222C41.5579 31.9478 42.0594 31.4204 42.7108 31.0399C43.3622 30.6595 44.1403 30.4693 45.0453 30.4693C45.8178 30.4693 46.4749 30.6105 47.0167 30.8929C47.5644 31.1696 47.9794 31.5558 48.2618 32.0516C48.5501 32.5415 48.6942 33.1064 48.6942 33.7463Z" fill="#0D0D0D"/>
<path d="M52.7269 34.2737C52.7269 33.4379 52.8451 32.7375 53.0814 32.1726C53.3178 31.6077 53.6291 31.184 54.0153 30.9016C54.4015 30.6134 54.8165 30.4693 55.2604 30.4693C55.808 30.4693 56.2316 30.6249 56.5314 30.9362C56.8311 31.2474 56.981 31.6942 56.981 32.2764C56.981 32.7952 56.8744 33.1814 56.6611 33.435C56.4478 33.6886 56.1711 33.8154 55.831 33.8154C55.4852 33.8154 55.2229 33.7232 55.0442 33.5388C54.8655 33.3543 54.7762 33.0978 54.7762 32.7692V32.458C54.7704 32.2735 54.7272 32.138 54.6465 32.0516C54.5658 31.9593 54.4332 31.9132 54.2487 31.9132C54.047 31.9132 53.851 31.9968 53.6608 32.164C53.4763 32.3311 53.3235 32.5848 53.2025 32.9249C53.0872 33.265 53.0296 33.7002 53.0296 34.2305L52.7269 34.2737ZM52.8912 31.0659L53.0296 33.0286V37.4643C53.0296 37.6314 53.0613 37.7554 53.1247 37.8361C53.1938 37.911 53.3149 37.9629 53.4878 37.9917L54.2314 38.1041C54.364 38.1272 54.462 38.1704 54.5254 38.2338C54.5946 38.2972 54.6292 38.3837 54.6292 38.4932C54.6292 38.6085 54.5859 38.6978 54.4995 38.7612C54.4188 38.8246 54.3006 38.8564 54.145 38.8564H50.1071C49.9457 38.8564 49.8275 38.8246 49.7525 38.7612C49.6776 38.6978 49.6401 38.6114 49.6401 38.5018C49.6401 38.4154 49.6661 38.3433 49.718 38.2857C49.7698 38.2223 49.8505 38.1704 49.9601 38.13L50.2973 38.0436C50.401 38.009 50.476 37.9514 50.5221 37.8707C50.574 37.7842 50.5999 37.6516 50.5999 37.4729V32.5358C50.5999 32.3859 50.5768 32.2793 50.5307 32.2158C50.4904 32.1524 50.4212 32.1121 50.3232 32.0948L49.8649 32.0602C49.7612 32.0372 49.6863 31.9997 49.6401 31.9478C49.594 31.8959 49.571 31.8296 49.571 31.7489C49.571 31.6509 49.5998 31.5731 49.6574 31.5155C49.7151 31.4578 49.8188 31.4002 49.9687 31.3426L51.5424 30.7719C51.8248 30.6624 52.0323 30.5932 52.1649 30.5644C52.2975 30.5298 52.4013 30.5125 52.4762 30.5125C52.603 30.5125 52.6981 30.5557 52.7615 30.6422C52.8249 30.7229 52.8682 30.8641 52.8912 31.0659Z" fill="#0D0D0D"/>
<path d="M60.9673 26.5524V37.4729C60.9673 37.6516 60.9904 37.7842 61.0365 37.8707C61.0884 37.9514 61.1662 38.009 61.2699 38.0436L61.5985 38.13C61.708 38.1646 61.7887 38.2136 61.8406 38.277C61.8925 38.3347 61.9184 38.4096 61.9184 38.5018C61.9184 38.6114 61.881 38.6978 61.806 38.7612C61.7311 38.8246 61.61 38.8564 61.4429 38.8564H58.0361C57.8747 38.8564 57.7566 38.8246 57.6816 38.7612C57.6067 38.6978 57.5692 38.6114 57.5692 38.5018C57.5692 38.4154 57.5952 38.3433 57.6471 38.2857C57.6989 38.2223 57.7796 38.1704 57.8892 38.13L58.2264 38.0436C58.3301 38.0032 58.4051 37.9427 58.4512 37.862C58.5031 37.7813 58.529 37.6516 58.529 37.4729V28.005C58.529 27.8609 58.5059 27.7571 58.4598 27.6937C58.4195 27.6303 58.3503 27.59 58.2523 27.5727L57.794 27.5381C57.6903 27.5093 57.6154 27.4689 57.5692 27.417C57.5231 27.3652 57.5001 27.2989 57.5001 27.2182C57.5001 27.1259 57.5289 27.051 57.5865 26.9934C57.6442 26.9357 57.7479 26.8781 57.8978 26.8204L59.5061 26.2325C59.7366 26.146 59.9182 26.0855 60.0508 26.0509C60.1834 26.0163 60.2986 25.999 60.3966 25.999C60.5869 25.999 60.7281 26.0509 60.8203 26.1547C60.9183 26.2527 60.9673 26.3852 60.9673 26.5524Z" fill="#0D0D0D"/>
<path d="M66.1437 31.0572V37.4729C66.1437 37.6516 66.1668 37.7842 66.2129 37.8707C66.2648 37.9514 66.3426 38.009 66.4463 38.0436L66.7749 38.13C66.8844 38.1646 66.9651 38.2136 67.017 38.277C67.0689 38.3347 67.0948 38.4096 67.0948 38.5018C67.0948 38.6114 67.0574 38.6978 66.9824 38.7612C66.9075 38.8246 66.7864 38.8564 66.6193 38.8564H63.2126C63.0512 38.8564 62.933 38.8246 62.8581 38.7612C62.7831 38.6978 62.7456 38.6114 62.7456 38.5018C62.7456 38.4154 62.7716 38.3433 62.8235 38.2857C62.8753 38.2223 62.956 38.1704 63.0656 38.13L63.4028 38.0436C63.5065 38.0032 63.5815 37.9427 63.6276 37.862C63.6795 37.7813 63.7054 37.6516 63.7054 37.4729V32.5185C63.7054 32.3686 63.6824 32.262 63.6362 32.1986C63.5959 32.1351 63.5267 32.0948 63.4287 32.0775L62.9705 32.0429C62.8667 32.0199 62.7918 31.9824 62.7456 31.9305C62.6995 31.8786 62.6765 31.8123 62.6765 31.7316C62.6765 31.6337 62.7024 31.5558 62.7543 31.4982C62.8119 31.4405 62.9186 31.3829 63.0742 31.3253L64.6825 30.7373C64.9073 30.6566 65.086 30.599 65.2185 30.5644C65.3569 30.5298 65.4722 30.5125 65.5644 30.5125C65.7604 30.5125 65.9045 30.5644 65.9967 30.6681C66.0947 30.7661 66.1437 30.8958 66.1437 31.0572ZM64.7343 29.1896C64.2732 29.1896 63.9014 29.0714 63.6189 28.8351C63.3423 28.593 63.2039 28.2788 63.2039 27.8926C63.2039 27.5064 63.3423 27.198 63.6189 26.9674C63.9014 26.7311 64.2732 26.6129 64.7343 26.6129C65.2013 26.6129 65.5731 26.7311 65.8497 26.9674C66.1322 27.198 66.2734 27.5064 66.2734 27.8926C66.2734 28.2788 66.1322 28.593 65.8497 28.8351C65.5731 29.0714 65.2013 29.1896 64.7343 29.1896Z" fill="#0D0D0D"/>
<path d="M71.2691 31.2474C70.8713 31.2474 70.56 31.3483 70.3352 31.5501C70.1162 31.7461 70.0067 31.9968 70.0067 32.3023C70.0067 32.4925 70.047 32.6655 70.1277 32.8211C70.2142 32.971 70.3756 33.1093 70.6119 33.2361C70.8483 33.3629 71.1941 33.4811 71.6495 33.5906C72.5372 33.7751 73.2232 34.0057 73.7074 34.2824C74.1916 34.559 74.5288 34.879 74.719 35.2421C74.9092 35.5995 75.0043 36.0001 75.0043 36.444C75.0043 37.2452 74.7219 37.8851 74.157 38.3635C73.5921 38.8362 72.7707 39.0725 71.6927 39.0725C71.3123 39.0725 71.001 39.0379 70.7589 38.9688C70.5168 38.9053 70.3179 38.8419 70.1623 38.7785C70.0067 38.7094 69.8683 38.6748 69.7473 38.6748C69.6262 38.6748 69.5254 38.7094 69.4447 38.7785C69.3697 38.8419 69.2977 38.9053 69.2285 38.9688C69.1593 39.0379 69.0671 39.0725 68.9518 39.0725C68.848 39.0725 68.7702 39.0437 68.7183 38.986C68.6665 38.9284 68.6175 38.8218 68.5714 38.6661L68.0007 36.9282C67.9373 36.7264 67.9171 36.5622 67.9402 36.4353C67.969 36.3085 68.0468 36.2192 68.1736 36.1673C68.3062 36.1212 68.4215 36.1241 68.5195 36.1759C68.6175 36.2221 68.7097 36.3114 68.7962 36.444C69.0556 36.8936 69.3322 37.2539 69.6262 37.5248C69.9202 37.79 70.2286 37.9831 70.5514 38.1041C70.88 38.2252 71.2143 38.2857 71.5544 38.2857C72.0501 38.2857 72.419 38.1848 72.6611 37.9831C72.909 37.7813 73.0329 37.5133 73.0329 37.1789C73.0329 36.9772 72.9811 36.7956 72.8773 36.6342C72.7736 36.467 72.5804 36.3172 72.298 36.1846C72.0155 36.0462 71.6063 35.9165 71.0702 35.7955C70.3266 35.6341 69.7329 35.4266 69.289 35.1729C68.8509 34.9136 68.5339 34.6023 68.3379 34.2391C68.1477 33.876 68.0526 33.4552 68.0526 32.9767C68.0526 32.4752 68.1823 32.0372 68.4417 31.6625C68.7011 31.2878 69.0613 30.9967 69.5225 30.7892C69.9836 30.5759 70.5168 30.4693 71.1221 30.4693C71.514 30.4693 71.8282 30.5038 72.0645 30.573C72.3009 30.6422 72.494 30.7142 72.6439 30.7892C72.7995 30.8583 72.9407 30.8929 73.0675 30.8929C73.2059 30.8929 73.3154 30.8583 73.3961 30.7892C73.4768 30.7142 73.5546 30.6422 73.6296 30.573C73.7045 30.5038 73.7967 30.4693 73.9062 30.4693C73.9927 30.4693 74.0648 30.501 74.1224 30.5644C74.1858 30.622 74.2319 30.7258 74.2607 30.8756L74.6844 32.5271C74.7248 32.7404 74.7334 32.9076 74.7104 33.0286C74.6931 33.1497 74.6181 33.2361 74.4856 33.288C74.3587 33.3399 74.2463 33.3341 74.1483 33.2707C74.0503 33.2073 73.9524 33.0949 73.8544 32.9335C73.497 32.3225 73.0906 31.8902 72.6352 31.6365C72.1856 31.3771 71.7302 31.2474 71.2691 31.2474Z" fill="#0D0D0D"/>
<path d="M76.3926 31.5155L75.9949 31.3944C75.8566 31.3483 75.7586 31.2964 75.7009 31.2388C75.6433 31.1754 75.6145 31.1033 75.6145 31.0226C75.6145 30.9073 75.6519 30.8209 75.7269 30.7632C75.8076 30.6998 75.9142 30.6681 76.0468 30.6681H76.5742C76.7126 30.6681 76.8278 30.6422 76.9201 30.5903C77.0123 30.5384 77.1074 30.4462 77.2054 30.3136L78.1479 28.9907C78.2689 28.8408 78.3842 28.7313 78.4937 28.6621C78.6033 28.593 78.7128 28.5584 78.8223 28.5584C78.9434 28.5584 79.0385 28.5959 79.1076 28.6708C79.1768 28.7457 79.2114 28.8552 79.2114 28.9994V36.3921C79.2114 36.7956 79.2892 37.104 79.4449 37.3173C79.6063 37.5306 79.8282 37.6372 80.1106 37.6372C80.3239 37.6372 80.4882 37.5968 80.6035 37.5161C80.7245 37.4297 80.8196 37.3317 80.8888 37.2222C80.958 37.1126 81.0243 37.0175 81.0877 36.9368C81.1569 36.8504 81.2433 36.8043 81.3471 36.7985C81.4335 36.7985 81.4998 36.8273 81.546 36.885C81.5978 36.9426 81.6238 37.0377 81.6238 37.1703C81.618 37.4989 81.5085 37.8044 81.2952 38.0868C81.0877 38.3693 80.7966 38.5998 80.4219 38.7785C80.0472 38.9515 79.6207 39.0379 79.1422 39.0379C78.4044 39.0379 77.8251 38.8535 77.4043 38.4846C76.9892 38.1099 76.7817 37.5478 76.7817 36.7985V32.0256C76.7817 31.8758 76.75 31.7662 76.6866 31.6971C76.629 31.6221 76.531 31.5616 76.3926 31.5155ZM78.2516 31.5241V30.6681H81.1136C81.2462 30.6681 81.35 30.6969 81.4249 30.7546C81.5056 30.8065 81.546 30.8843 81.546 30.988C81.546 31.1379 81.471 31.2647 81.3211 31.3685C81.1713 31.4723 80.9292 31.5241 80.5948 31.5241H78.2516Z" fill="#0D0D0D"/>
<line x1="86.508" y1="26.2033" x2="86.508" y2="38.8682" stroke="#94A3B8" stroke-width="0.408547" stroke-linecap="round"/>
<path d="M91.0151 38.8173C90.8703 38.8173 90.7979 38.7655 90.7979 38.6621C90.7979 38.5483 90.9013 38.4759 91.1081 38.4449L91.4184 38.3984C91.646 38.3673 91.8011 38.3156 91.8839 38.2432C91.9769 38.1605 92.0442 38.0105 92.0855 37.7933L94.1955 28.6708C94.2472 28.4536 94.2472 28.3088 94.1955 28.2364C94.1438 28.164 94.0145 28.1071 93.8077 28.0658L93.4974 28.0037C93.3629 27.9727 93.2957 27.9158 93.2957 27.833C93.2957 27.7089 93.3888 27.6469 93.5749 27.6469H96.383C96.5382 27.6469 96.6002 27.7089 96.5692 27.833C96.5485 27.9261 96.4813 27.983 96.3675 28.0037L95.9331 28.0658C95.7056 28.0968 95.5504 28.1537 95.4677 28.2364C95.385 28.3192 95.3177 28.4691 95.266 28.6863L93.2491 37.3744C93.1664 37.7468 93.2181 38.0157 93.4043 38.1812C93.5904 38.3467 93.8594 38.4294 94.211 38.4294C94.6041 38.4294 95.0074 38.2794 95.4212 37.9795C95.8349 37.6795 96.1762 37.2089 96.4451 36.5677L96.9105 35.4817C96.9623 35.3472 97.045 35.28 97.1588 35.28C97.3139 35.28 97.3656 35.3679 97.3139 35.5437L96.4451 38.4604C96.383 38.6983 96.2279 38.8173 95.9797 38.8173H91.0151Z" fill="#0D0D0D"/>
<path d="M99.1611 38.9569C98.7888 38.9569 98.4992 38.7966 98.2923 38.4759C98.0854 38.1553 97.982 37.6847 97.982 37.0641C97.982 36.4746 98.0647 35.885 98.2302 35.2955C98.3957 34.6956 98.6233 34.1267 98.9129 33.5889C99.2025 33.0511 99.5283 32.5753 99.8903 32.1616C100.263 31.7479 100.65 31.422 101.054 31.1842C101.468 30.9359 101.876 30.8118 102.279 30.8118C102.476 30.8118 102.662 30.8532 102.838 30.9359C103.014 31.0083 103.159 31.1273 103.272 31.2928C103.334 31.3858 103.397 31.4324 103.459 31.4324C103.521 31.4324 103.583 31.3858 103.645 31.2928C103.759 31.1273 103.852 31.0238 103.924 30.9825C103.996 30.9308 104.064 30.9049 104.126 30.9049C104.26 30.9049 104.312 30.9773 104.281 31.1221L102.9 37.0641C102.745 37.7364 102.848 38.0726 103.21 38.0726C103.448 38.0726 103.66 37.9123 103.846 37.5916C104.043 37.271 104.239 36.7745 104.436 36.1022C104.467 35.9885 104.534 35.9316 104.638 35.9316C104.71 35.9316 104.757 35.9626 104.777 36.0247C104.798 36.0867 104.798 36.1591 104.777 36.2419C104.581 37.2141 104.317 37.9123 103.986 38.3363C103.655 38.75 103.257 38.9569 102.791 38.9569C102.388 38.9569 102.098 38.7862 101.923 38.4449C101.757 38.1036 101.742 37.6382 101.876 37.0486L102.078 36.1953C102.098 36.1229 102.083 36.0815 102.031 36.0712C101.99 36.0609 101.954 36.0867 101.923 36.1488C101.354 37.1934 100.847 37.9226 100.402 38.3363C99.9678 38.75 99.5541 38.9569 99.1611 38.9569ZM99.549 38.1657C99.7972 38.1657 100.071 38.0157 100.371 37.7157C100.671 37.4158 100.966 37.0279 101.256 36.5522C101.555 36.0764 101.83 35.5644 102.078 35.0162C102.326 34.468 102.523 33.9406 102.667 33.4338C102.823 32.9269 102.9 32.4977 102.9 32.1461C102.9 31.5151 102.678 31.1997 102.233 31.1997C101.964 31.1997 101.68 31.3238 101.38 31.572C101.08 31.8099 100.79 32.1357 100.511 32.5494C100.242 32.9631 99.9937 33.4338 99.7662 33.9612C99.549 34.4784 99.3731 35.0214 99.2387 35.5903C99.1042 36.1488 99.037 36.697 99.037 37.2348C99.037 37.5968 99.0784 37.845 99.1611 37.9795C99.2542 38.1036 99.3835 38.1657 99.549 38.1657Z" fill="#0D0D0D"/>
<path d="M106.913 38.9569C106.53 38.9569 106.266 38.7862 106.121 38.4449C105.987 38.0933 105.997 37.633 106.152 37.0641L107.378 32.5649C107.461 32.265 107.481 32.0323 107.44 31.8668C107.399 31.7013 107.306 31.6186 107.161 31.6186C106.923 31.6186 106.68 31.7996 106.432 32.1616C106.194 32.5236 105.987 33.0252 105.811 33.6665C105.78 33.7802 105.713 33.8371 105.609 33.8371C105.465 33.8371 105.418 33.7337 105.47 33.5268C105.708 32.658 106.018 31.9909 106.401 31.5255C106.794 31.0497 107.223 30.8118 107.688 30.8118C108.061 30.8118 108.309 30.9825 108.433 31.3238C108.557 31.6651 108.536 32.1305 108.371 32.7201L107.13 37.2193C106.933 37.9329 107.001 38.2898 107.332 38.2898C107.538 38.2898 107.776 38.1501 108.045 37.8709C108.314 37.5916 108.593 37.2089 108.883 36.7228C109.183 36.2367 109.478 35.6833 109.767 35.0628C110.057 34.4422 110.321 33.7906 110.559 33.108C110.796 32.4253 110.993 31.7479 111.148 31.0756C111.179 30.9618 111.251 30.9049 111.365 30.9049H111.986C112.131 30.9049 112.188 30.9721 112.156 31.1066L110.698 37.3434C110.584 37.8295 110.672 38.0726 110.962 38.0726C111.396 38.0726 111.851 37.4158 112.327 36.1022C112.369 35.9678 112.441 35.9005 112.544 35.9005C112.606 35.9005 112.648 35.9264 112.668 35.9781C112.7 36.0298 112.7 36.0971 112.668 36.1798C112.389 37.059 112.058 37.7416 111.676 38.2277C111.293 38.7138 110.889 38.9569 110.465 38.9569C109.721 38.9569 109.472 38.4139 109.721 37.3279L110.124 35.6058C110.145 35.5334 110.129 35.492 110.078 35.4817C110.036 35.4713 110 35.4972 109.969 35.5592C109.369 36.8004 108.816 37.6795 108.309 38.1967C107.802 38.7035 107.337 38.9569 106.913 38.9569Z" fill="#0D0D0D"/>
<path d="M113.829 38.6156L115.303 32.4253C115.355 32.1978 115.36 32.0219 115.319 31.8978C115.288 31.7634 115.194 31.6961 115.039 31.6961C114.853 31.6961 114.646 31.8358 114.419 32.115C114.201 32.3839 113.953 32.9011 113.674 33.6665C113.633 33.8009 113.56 33.8682 113.457 33.8682C113.302 33.8682 113.26 33.7751 113.333 33.5889C113.56 32.8752 113.798 32.3167 114.046 31.9133C114.305 31.51 114.563 31.2255 114.822 31.06C115.081 30.8946 115.319 30.8118 115.536 30.8118C115.877 30.8118 116.12 30.9411 116.265 31.1997C116.41 31.4479 116.415 31.8616 116.28 32.4408L115.893 34.1164C115.882 34.1888 115.898 34.2302 115.939 34.2405C115.98 34.2508 116.017 34.225 116.048 34.1629C116.451 33.3252 116.839 32.6632 117.211 32.1771C117.584 31.6806 117.935 31.329 118.266 31.1221C118.597 30.9152 118.897 30.8118 119.166 30.8118C119.549 30.8118 119.828 30.967 120.004 31.2772C120.18 31.5875 120.18 32.0633 120.004 32.7046L118.825 37.2038C118.752 37.4934 118.747 37.7106 118.809 37.8554C118.871 38.0002 118.985 38.0726 119.151 38.0726C119.357 38.0726 119.559 37.9381 119.756 37.6692C119.963 37.3899 120.175 36.8676 120.392 36.1022C120.423 35.9885 120.49 35.9316 120.593 35.9316C120.676 35.9316 120.723 35.9626 120.733 36.0247C120.754 36.0867 120.754 36.1591 120.733 36.2419C120.537 36.9452 120.325 37.4985 120.097 37.9019C119.869 38.2949 119.637 38.569 119.399 38.7242C119.171 38.8793 118.939 38.9569 118.701 38.9569C118.328 38.9569 118.049 38.8017 117.863 38.4915C117.677 38.1812 117.666 37.7002 117.832 37.0486L119.026 32.5494C119.14 32.1461 119.156 31.8668 119.073 31.7117C119.001 31.5565 118.892 31.4789 118.747 31.4789C118.52 31.4789 118.261 31.6237 117.971 31.9133C117.682 32.1926 117.387 32.5805 117.087 33.0769C116.787 33.563 116.492 34.1164 116.203 34.737C115.913 35.3575 115.65 36.004 115.412 36.6763C115.184 37.3486 114.998 38.0053 114.853 38.6466C114.822 38.7604 114.75 38.8173 114.636 38.8173H114C113.855 38.8173 113.798 38.75 113.829 38.6156Z" fill="#0D0D0D"/>
<path d="M123.3 38.9569C122.732 38.9569 122.261 38.7242 121.889 38.2587C121.516 37.783 121.33 37.1779 121.33 36.4436C121.33 35.7506 121.439 35.0731 121.656 34.4112C121.883 33.7389 122.183 33.1338 122.556 32.596C122.938 32.0478 123.357 31.6134 123.812 31.2928C124.278 30.9721 124.743 30.8118 125.209 30.8118C125.705 30.8118 126.124 30.9463 126.465 31.2152C126.517 31.2566 126.548 31.2928 126.558 31.3238C126.569 31.3445 126.564 31.3962 126.543 31.4789L126.124 33.5113C126.093 33.6561 126.026 33.7285 125.922 33.7285C125.809 33.7285 125.741 33.651 125.721 33.4958L125.643 32.3943C125.612 31.9185 125.54 31.6082 125.426 31.4634C125.323 31.3186 125.167 31.2462 124.961 31.2462C124.671 31.2462 124.376 31.391 124.076 31.6806C123.776 31.9599 123.497 32.3426 123.238 32.8287C122.99 33.3045 122.788 33.8371 122.633 34.4267C122.489 35.0059 122.416 35.5954 122.416 36.1953C122.416 37.4985 122.84 38.1501 123.688 38.1501C124.092 38.1501 124.454 37.964 124.774 37.5916C125.105 37.2193 125.41 36.6401 125.69 35.854C125.721 35.7506 125.793 35.6989 125.907 35.6989C125.969 35.6989 126.005 35.7247 126.015 35.7764C126.026 35.8178 126.015 35.9057 125.984 36.0402C125.881 36.609 125.695 37.1107 125.426 37.5451C125.157 37.9795 124.836 38.326 124.464 38.5845C124.102 38.8328 123.714 38.9569 123.3 38.9569Z" fill="#0D0D0D"/>
<path d="M131.532 38.9569C131.16 38.9569 130.881 38.8017 130.694 38.4915C130.508 38.1812 130.498 37.7002 130.663 37.0486L131.858 32.5494C131.972 32.1461 131.987 31.8668 131.905 31.7117C131.832 31.5565 131.724 31.4789 131.579 31.4789C131.351 31.4789 131.093 31.6237 130.803 31.9133C130.524 32.1926 130.229 32.5805 129.919 33.0769C129.619 33.563 129.324 34.1164 129.034 34.737C128.755 35.3472 128.497 35.9936 128.259 36.6763C128.021 37.3486 127.829 38.0053 127.685 38.6466C127.654 38.7604 127.581 38.8173 127.467 38.8173H126.816C126.671 38.8173 126.614 38.75 126.645 38.6156L128.91 28.888C128.962 28.7019 128.962 28.5726 128.91 28.5002C128.869 28.4278 128.776 28.3864 128.631 28.376L128.166 28.3295C128.01 28.3192 127.943 28.2519 127.964 28.1278C127.985 28.0347 128.057 27.9778 128.181 27.9572C128.553 27.8951 128.884 27.8227 129.174 27.74C129.464 27.6469 129.696 27.5279 129.872 27.3831C129.955 27.3211 130.032 27.29 130.105 27.29C130.229 27.29 130.276 27.3676 130.245 27.5228L128.724 34.1164C128.714 34.1888 128.729 34.2302 128.771 34.2405C128.812 34.2508 128.848 34.225 128.879 34.1629C129.293 33.3148 129.686 32.6477 130.058 32.1616C130.431 31.6755 130.777 31.329 131.098 31.1221C131.429 30.9152 131.729 30.8118 131.998 30.8118C132.38 30.8118 132.66 30.967 132.835 31.2772C133.011 31.5875 133.011 32.0633 132.835 32.7046L131.656 37.2038C131.584 37.4934 131.579 37.7106 131.641 37.8554C131.703 38.0002 131.817 38.0726 131.982 38.0726C132.189 38.0726 132.391 37.9381 132.587 37.6692C132.784 37.3899 132.996 36.8676 133.223 36.1022C133.254 35.9885 133.322 35.9316 133.425 35.9316C133.508 35.9316 133.554 35.9626 133.565 36.0247C133.585 36.0867 133.585 36.1591 133.565 36.2419C133.368 36.9452 133.156 37.4985 132.928 37.9019C132.701 38.2949 132.468 38.569 132.23 38.7242C132.003 38.8793 131.77 38.9569 131.532 38.9569Z" fill="#0D0D0D"/>
<path d="M132.736 41.9977C132.601 41.9977 132.534 41.9408 132.534 41.8271C132.534 41.7236 132.617 41.6616 132.782 41.6409L133 41.6099C133.207 41.5788 133.362 41.5168 133.465 41.4237C133.558 41.3409 133.631 41.1858 133.682 40.9583L135.746 32.053C135.766 31.9702 135.751 31.9082 135.699 31.8668C135.658 31.8151 135.596 31.8151 135.513 31.8668C135.41 31.9185 135.311 31.9754 135.218 32.0375C135.125 32.0892 135.032 32.1461 134.939 32.2081C134.846 32.2702 134.768 32.2909 134.706 32.2702C134.644 32.2391 134.613 32.1874 134.613 32.115C134.613 32.0426 134.665 31.9702 134.768 31.8978C135.058 31.7013 135.358 31.5307 135.668 31.3858C135.844 31.3031 135.953 31.1686 135.994 30.9825L136.196 30.0982C136.247 29.8809 136.382 29.7723 136.599 29.7723H136.878C137.002 29.7723 137.095 29.8085 137.158 29.8809C137.22 29.9533 137.235 30.0568 137.204 30.1912L137.095 30.6412C137.064 30.817 137.132 30.8894 137.297 30.8584C137.535 30.8273 137.763 30.8118 137.98 30.8118C138.745 30.8118 139.371 31.029 139.857 31.4634C140.343 31.8978 140.586 32.5649 140.586 33.4648C140.586 34.1681 140.457 34.8507 140.198 35.5127C139.94 36.1643 139.598 36.7487 139.174 37.2658C138.75 37.783 138.285 38.1967 137.778 38.507C137.271 38.8069 136.764 38.9569 136.258 38.9569C135.978 38.9569 135.715 38.9 135.466 38.7862C135.311 38.7138 135.218 38.7552 135.187 38.9103L134.722 40.9583C134.67 41.1858 134.67 41.3358 134.722 41.4082C134.784 41.4806 134.913 41.5323 135.11 41.5633L135.513 41.6254C135.699 41.6564 135.792 41.7185 135.792 41.8115C135.792 41.9357 135.704 41.9977 135.528 41.9977H132.736ZM135.622 37.0331C135.435 38.0571 135.658 38.569 136.289 38.569C136.651 38.569 137.018 38.4191 137.39 38.1191C137.763 37.8088 138.109 37.4003 138.43 36.8935C138.75 36.3763 139.009 35.7971 139.205 35.1559C139.402 34.5146 139.5 33.8578 139.5 33.1855C139.5 32.4925 139.35 31.9961 139.05 31.6961C138.75 31.3858 138.311 31.2307 137.732 31.2307C137.214 31.2307 136.92 31.4065 136.847 31.7582L135.622 37.0331Z" fill="#0D0D0D"/>
<path d="M142.28 38.9569C141.908 38.9569 141.618 38.7966 141.411 38.4759C141.205 38.1553 141.101 37.6847 141.101 37.0641C141.101 36.4746 141.184 35.885 141.349 35.2955C141.515 34.6956 141.742 34.1267 142.032 33.5889C142.322 33.0511 142.647 32.5753 143.009 32.1616C143.382 31.7479 143.77 31.422 144.173 31.1842C144.587 30.9359 144.995 30.8118 145.399 30.8118C145.595 30.8118 145.781 30.8532 145.957 30.9359C146.133 31.0083 146.278 31.1273 146.392 31.2928C146.454 31.3858 146.516 31.4324 146.578 31.4324C146.64 31.4324 146.702 31.3858 146.764 31.2928C146.878 31.1273 146.971 31.0238 147.043 30.9825C147.116 30.9308 147.183 30.9049 147.245 30.9049C147.379 30.9049 147.431 30.9773 147.4 31.1221L146.019 37.0641C145.864 37.7364 145.968 38.0726 146.33 38.0726C146.567 38.0726 146.779 37.9123 146.966 37.5916C147.162 37.271 147.359 36.7745 147.555 36.1022C147.586 35.9885 147.653 35.9316 147.757 35.9316C147.829 35.9316 147.876 35.9626 147.897 36.0247C147.917 36.0867 147.917 36.1591 147.897 36.2419C147.7 37.2141 147.436 37.9123 147.105 38.3363C146.774 38.75 146.376 38.9569 145.911 38.9569C145.507 38.9569 145.218 38.7862 145.042 38.4449C144.876 38.1036 144.861 37.6382 144.995 37.0486L145.197 36.1953C145.218 36.1229 145.202 36.0815 145.15 36.0712C145.109 36.0609 145.073 36.0867 145.042 36.1488C144.473 37.1934 143.966 37.9226 143.521 38.3363C143.087 38.75 142.673 38.9569 142.28 38.9569ZM142.668 38.1657C142.916 38.1657 143.19 38.0157 143.49 37.7157C143.79 37.4158 144.085 37.0279 144.375 36.5522C144.675 36.0764 144.949 35.5644 145.197 35.0162C145.445 34.468 145.642 33.9406 145.787 33.4338C145.942 32.9269 146.019 32.4977 146.019 32.1461C146.019 31.5151 145.797 31.1997 145.352 31.1997C145.083 31.1997 144.799 31.3238 144.499 31.572C144.199 31.8099 143.909 32.1357 143.63 32.5494C143.361 32.9631 143.113 33.4338 142.885 33.9612C142.668 34.4784 142.492 35.0214 142.358 35.5903C142.223 36.1488 142.156 36.697 142.156 37.2348C142.156 37.5968 142.198 37.845 142.28 37.9795C142.373 38.1036 142.503 38.1657 142.668 38.1657Z" fill="#0D0D0D"/>
<path d="M149.644 38.9569C149.261 38.9569 148.966 38.7966 148.76 38.4759C148.553 38.1553 148.449 37.6847 148.449 37.0641C148.449 36.4746 148.532 35.885 148.698 35.2955C148.863 34.6956 149.091 34.1267 149.38 33.5889C149.67 33.0511 149.996 32.5753 150.358 32.1616C150.73 31.7479 151.118 31.422 151.521 31.1842C151.935 30.9359 152.343 30.8118 152.747 30.8118C153.026 30.8118 153.269 30.8842 153.476 31.029C153.621 31.1221 153.709 31.0911 153.74 30.9359L154.236 28.888C154.288 28.7019 154.288 28.5726 154.236 28.5002C154.195 28.4278 154.102 28.3864 153.957 28.376L153.492 28.3295C153.336 28.3192 153.269 28.2519 153.29 28.1278C153.311 28.0347 153.383 27.9778 153.507 27.9572C153.879 27.8951 154.21 27.8227 154.5 27.74C154.79 27.6469 155.022 27.5279 155.198 27.3831C155.281 27.3211 155.358 27.29 155.431 27.29C155.555 27.29 155.602 27.3676 155.57 27.5228L153.367 37.0641C153.212 37.7364 153.316 38.0726 153.678 38.0726C153.916 38.0726 154.128 37.9123 154.314 37.5916C154.51 37.271 154.707 36.7745 154.903 36.1022C154.934 35.9885 155.002 35.9316 155.105 35.9316C155.177 35.9316 155.224 35.9626 155.245 36.0247C155.265 36.0867 155.265 36.1591 155.245 36.2419C155.048 37.2141 154.774 37.9123 154.422 38.3363C154.081 38.75 153.678 38.9569 153.212 38.9569C152.809 38.9569 152.519 38.7862 152.343 38.4449C152.178 38.1036 152.162 37.6382 152.297 37.0486L152.468 36.335C152.488 36.2626 152.473 36.2212 152.421 36.2108C152.38 36.2005 152.343 36.2264 152.312 36.2884C151.816 37.2606 151.345 37.9485 150.901 38.3518C150.456 38.7552 150.037 38.9569 149.644 38.9569ZM150.016 38.1657C150.265 38.1657 150.539 38.0157 150.839 37.7157C151.139 37.4158 151.433 37.0279 151.723 36.5522C152.023 36.0764 152.297 35.5644 152.545 35.0162C152.793 34.468 152.99 33.9406 153.135 33.4338C153.29 32.9269 153.367 32.4977 153.367 32.1461C153.367 31.5151 153.145 31.1997 152.7 31.1997C152.431 31.1997 152.147 31.3238 151.847 31.572C151.547 31.8099 151.257 32.1357 150.978 32.5494C150.709 32.9631 150.461 33.4338 150.234 33.9612C150.016 34.4784 149.84 35.0214 149.706 35.5903C149.572 36.1488 149.504 36.697 149.504 37.2348C149.504 37.5968 149.551 37.845 149.644 37.9795C149.747 38.1036 149.872 38.1657 150.016 38.1657Z" fill="#0D0D0D"/>
<g clip-path="url(#clip2_28225_97498)">
<path d="M166.54 7.26C174.76 19.92 172.42 37.62 159.88 47.16C159.64 47.4 159.52 47.7 159.64 47.88C159.76 48.06 160.12 48.06 160.36 47.82C166.31 43.1109 170.237 36.3076 171.34 28.8C172.48 21.24 170.8 13.56 166.54 7.26ZM165.88 42.9C167.62 44.4 171.1 43.14 172.84 39.66C170.74 38.64 167.92 40.26 165.88 42.9ZM164.02 35.04C162.88 37.38 162.88 40.32 164.62 41.88C166.66 39.24 166.06 36 164.02 35.04ZM169.12 37.68C171.1 38.88 174.22 36.96 175.24 33.24C173.02 32.7 170.62 34.8 169.12 37.68ZM165.7 30.48C165.04 33 165.64 35.88 167.68 36.96H167.74C169.18 34.02 167.92 31.02 165.7 30.48ZM171.22 32.1C173.44 32.82 176.08 30.36 176.38 26.52C174.1 26.4 172.12 28.98 171.22 32.1ZM166.48 25.74C166.3 28.32 167.5 30.96 169.72 31.68V31.62C170.56 28.5 168.82 25.86 166.48 25.74ZM176.2 19.68C173.92 20.1 172.48 22.98 172.24 26.16C174.52 26.46 176.68 23.52 176.2 19.68ZM166.36 20.94C166.72 23.52 168.34 25.8 170.62 26.1L170.68 26.04C170.86 22.86 168.64 20.58 166.36 20.94ZM165.34 16.26C166.12 18.72 168.22 20.64 170.5 20.4C170.14 17.22 167.5 15.42 165.34 16.26ZM174.76 13.02C172.66 13.86 171.76 16.92 172.06 20.04L172.12 20.22H172.18C174.4 19.92 175.9 16.8 174.82 13.2L174.76 13.02ZM163.42 11.76C164.74 14.04 167.08 15.54 169.3 14.88C168.34 11.82 165.4 10.5 163.42 11.76ZM172 6.72C170.08 7.98 169.84 11.28 170.8 14.4C173.02 13.74 173.98 10.14 172 6.72ZM160.6 7.68C162.4 9.72 165.04 10.74 167.08 9.66C165.46 6.78 162.22 6.06 160.6 7.68ZM168.04 0.96C166.36 2.64 166.84 6 168.46 8.82C170.44 7.74 170.68 4.02 168.04 0.96ZM159.64 0C160.72 2.82 163 5.04 165.76 6.12C165.76 3.24 162.64 0.06 159.64 0Z" fill="#00AA45"/>
</g>
</g>
<defs>
<clipPath id="clip0_28225_97498">
<rect width="176.38" height="48" fill="white"/>
</clipPath>
<clipPath id="clip1_28225_97498">
<rect width="16.8" height="48" fill="white"/>
</clipPath>
<clipPath id="clip2_28225_97498">
<rect width="16.8" height="48" fill="white" transform="matrix(-1 0 0 1 176.38 0)"/>
</clipPath>
</defs>
</svg>
